<svg width="159" height="96" viewBox="0 0 159 96" fill="none" xmlns="http://www.w3.org/2000/svg">
<path d="M108.065 38.5362C107.936 31.0692 102.385 24.3363 94.6731 24.1655C90.2076 24.0731 90.2169 30.9953 94.6731 31.0922C96.414 31.1292 97.8178 31.8219 99.1986 33.2673C100.455 34.5695 101.129 36.5967 101.161 38.5316C101.24 42.9878 108.171 42.9971 108.088 38.5316" fill="#263057"/>
<path d="M129.732 38.5361C129.722 28.555 126.078 18.919 119.48 11.4293C116.367 7.90462 112.553 5.0678 108.281 3.09991C104.01 1.13202 99.3753 0.0762882 94.6731 0.000112711C90.203 -0.0322122 90.2076 6.89918 94.6731 6.92689C98.2974 6.95768 101.875 7.74407 105.179 9.23581C108.662 10.8445 111.774 13.1556 114.322 16.0241C116.883 18.8713 118.93 22.1416 120.371 25.6892C121.991 29.7701 122.817 34.1225 122.805 38.513C122.805 42.9785 129.732 42.9785 129.732 38.513" fill="#263057"/>
<path d="M94.6222 19.044C99.2401 19.0856 103.285 21.0805 106.592 24.5854C109.981 28.2428 111.796 33.4332 111.828 38.536C111.861 42.9968 118.783 42.9968 118.755 38.536C118.64 25.1119 108.688 12.2604 94.6084 12.1219C90.1429 12.0711 90.1475 18.9978 94.6084 19.0486" fill="#263057"/>
<path d="M7.71897 58.051C7.64763 60.0585 8.19404 62.0394 9.28442 63.7264C9.82324 64.5663 10.5717 65.2513 11.456 65.7137C12.3403 66.1761 13.3299 66.3999 14.3271 66.3632C15.3253 66.399 16.316 66.179 17.2051 65.7239C18.0942 65.2688 18.8521 64.5939 19.4068 63.7633C20.4952 62.0567 21.041 60.0602 20.9722 58.0372C20.9722 55.6698 20.475 53.7226 19.4806 52.1956C18.9368 51.3296 18.1737 50.6227 17.2687 50.1467C16.3637 49.6706 15.3488 49.4423 14.3271 49.4849C13.3106 49.4428 12.301 49.6715 11.402 50.1478C10.5029 50.6241 9.74662 51.3309 9.21054 52.1956C8.21616 53.7195 7.71897 55.6667 7.71897 58.0372V58.051ZM1 57.9725C1 53.8165 2.18217 50.4131 4.51418 47.7809C6.92008 45.0102 10.2034 43.6526 14.3271 43.6526C18.4509 43.6526 21.7711 45.0379 24.177 47.7394C26.509 50.3762 27.6912 53.7749 27.6912 57.9725C27.6912 62.1702 26.509 65.5366 24.177 68.1688C21.7341 70.8794 18.4509 72.2186 14.3271 72.2186C10.2034 72.2186 6.93856 70.8333 4.51418 68.1318C2.18217 65.5366 1 62.1378 1 57.9725Z" fill="#263057"/>
<path d="M36.8577 72.4448C33.422 72.4448 31.053 71.4935 29.7923 69.6186C29.4271 69.1057 29.2273 68.4935 29.2197 67.8639C29.2197 65.9936 30.1756 65.0932 32.1197 65.0932C32.6923 65.0932 33.4589 65.4026 34.4887 66.0167C35.3275 66.5793 36.3056 66.8989 37.3148 66.9403C38.46 66.9403 39.0327 66.5201 39.0327 65.6796C39.0327 65.1486 38.2292 64.5344 36.6268 63.8325C34.4148 62.8396 32.9325 62.0777 32.1982 61.5236C30.5958 60.3414 29.7923 58.8498 29.7923 57.132C29.7727 56.1824 29.9769 55.2415 30.3884 54.3855C30.8 53.5295 31.4073 52.7824 32.1613 52.2047C33.6824 51.0133 35.5728 50.3925 37.5042 50.45C38.7615 50.4389 40.0113 50.6451 41.1984 51.0595C42.404 51.3934 43.4676 52.1117 44.2277 53.1052C44.5553 53.5771 44.7397 54.1335 44.7588 54.7076C44.7725 55.0489 44.7151 55.3894 44.5903 55.7073C44.4655 56.0253 44.276 56.3139 44.0338 56.5548C43.7955 56.8031 43.5083 56.9994 43.1904 57.1313C42.8725 57.2632 42.5308 57.3279 42.1867 57.3213C41.3439 57.2112 40.5303 56.9399 39.79 56.5224C38.9936 56.1138 38.124 55.8674 37.2317 55.7974C36.2804 55.7974 35.8186 56.1391 35.8186 56.8688C35.8186 57.4414 36.2019 57.8616 37.0054 58.1664C38.7233 58.8129 39.9839 59.3485 40.6997 59.6903C41.8984 60.2506 42.9918 61.0129 43.9322 61.9438C44.7876 62.8954 45.2396 64.1423 45.1929 65.421C45.2101 66.4356 44.9788 67.4391 44.5192 68.3438C44.0596 69.2485 43.3856 70.027 42.5561 70.6115C40.9043 71.8437 38.8904 72.4933 36.8299 72.4586" fill="#263057"/>
<path d="M54.2299 57.8202L59.4619 52.3988C60.5332 51.2905 61.5999 50.7179 62.6297 50.7179C63.3024 50.7138 63.9555 50.944 64.4769 51.369C64.7211 51.583 64.9161 51.8474 65.0484 52.1439C65.1807 52.4405 65.2472 52.7622 65.2434 53.0869C65.2434 54.1166 64.7078 55.1095 63.678 56.0654L59.5219 59.9213L65.2896 66.6818C66.0442 67.5088 66.4783 68.5783 66.5133 69.6973C66.52 70.0394 66.4431 70.378 66.2894 70.6838C66.1358 70.9896 65.9099 71.2532 65.6313 71.4521C65.0522 71.8995 64.3406 72.1416 63.6087 72.1401C62.3896 72.1401 61.2998 71.5306 60.4039 70.293L54.2529 62.0455V67.6192C54.2529 70.6393 53.2232 72.1263 51.159 72.1263C49.0948 72.1263 48.0281 70.6393 48.0281 67.6192V46.4787C48.0281 43.4633 49.0625 41.9763 51.159 41.9763C53.2555 41.9763 54.2529 43.4633 54.2529 46.4787L54.2299 57.8202Z" fill="#263057"/>
<path d="M73.4402 61.3713C73.4005 62.6287 73.747 63.868 74.4331 64.9225C74.7535 65.4506 75.2083 65.8844 75.7509 66.1797C76.2936 66.475 76.9049 66.6212 77.5224 66.6034C78.1458 66.6219 78.7631 66.4764 79.3125 66.1814C79.862 65.8864 80.3244 65.4523 80.6533 64.9225C81.2856 63.852 81.6161 62.6302 81.6096 61.387C81.6031 60.1438 81.2598 58.9255 80.6164 57.8618C80.2768 57.349 79.8163 56.9276 79.2754 56.6347C78.7346 56.3418 78.13 56.1865 77.515 56.1824C76.9 56.1783 76.2934 56.3255 75.7487 56.6111C75.204 56.8968 74.7379 57.312 74.3915 57.8202C73.722 58.8802 73.3902 60.1186 73.4402 61.3713ZM67.063 61.4498C66.9948 58.5429 68.0463 55.7208 69.9999 53.5672C70.9515 52.5283 72.1163 51.7074 73.4147 51.1606C74.7131 50.6138 76.1143 50.3541 77.5224 50.3993C80.6533 50.3993 83.1746 51.466 85.0864 53.5672C86.9982 55.6683 87.9495 58.3051 87.9495 61.4729C88.0401 64.3539 87.0295 67.1611 85.1234 69.3233C83.1746 71.4613 80.6164 72.5327 77.5224 72.5327C76.0973 72.5787 74.6794 72.3133 73.3674 71.755C72.0554 71.1967 70.881 70.359 69.926 69.3002C67.9891 67.1541 66.9624 64.339 67.063 61.4498Z" fill="#263057"/>
<path d="M8.047 80.6029C8.32733 80.6029 8.57383 80.714 8.7865 80.9364C8.99917 81.149 9.1055 81.3955 9.1055 81.6759C9.1055 81.9562 8.917 82.3622 8.54 82.8939L6.104 86.3449V89.7524C6.104 90.8834 5.70283 91.4489 4.9005 91.4489C4.09817 91.4489 3.697 90.8834 3.697 89.7524V86.3449L1.2465 82.8939C0.888833 82.3912 0.71 81.9852 0.71 81.6759C0.71 81.3665 0.826 81.1104 1.058 80.9074C1.29 80.7044 1.5655 80.6029 1.8845 80.6029C2.27117 80.6029 2.682 80.9122 3.117 81.5309L4.915 84.1119L6.742 81.5019C7.15767 80.9025 7.59267 80.6029 8.047 80.6029ZM8.01075 87.3599C8.01075 86.1709 8.37808 85.1752 9.11275 84.3729C9.85708 83.5609 10.8141 83.1549 11.9838 83.1549C13.1728 83.1549 14.1298 83.556 14.8548 84.3584C15.5798 85.1607 15.9423 86.1612 15.9423 87.3599C15.9423 88.5489 15.5846 89.5397 14.8693 90.3324C14.1249 91.1444 13.1631 91.5504 11.9838 91.5504C10.8141 91.5504 9.85225 91.1395 9.09825 90.3179C8.37325 89.5252 8.01075 88.5392 8.01075 87.3599ZM10.4323 87.3309C10.4323 87.8625 10.5579 88.312 10.8093 88.6794C11.0896 89.1047 11.4811 89.3174 11.9838 89.3174C12.4961 89.3174 12.8924 89.1047 13.1728 88.6794C13.4144 88.3217 13.5353 87.8722 13.5353 87.3309C13.5353 86.8089 13.4096 86.3642 13.1583 85.9969C12.8779 85.5715 12.4864 85.3589 11.9838 85.3589C11.4714 85.3589 11.0751 85.5667 10.7948 85.9824C10.5531 86.3497 10.4323 86.7992 10.4323 87.3309ZM17.3579 88.1139V84.9964C17.3579 83.8654 17.7494 83.2999 18.5324 83.2999C19.3154 83.2999 19.7069 83.8654 19.7069 84.9964V87.6354C19.7069 88.1574 19.7746 88.5489 19.9099 88.8099C20.0936 89.1675 20.4271 89.3464 20.9104 89.3464C21.3938 89.3464 21.7273 89.1675 21.9109 88.8099C22.0463 88.5489 22.1139 88.1574 22.1139 87.6354V84.9964C22.1139 83.8654 22.5054 83.2999 23.2884 83.2999C24.0618 83.2999 24.4484 83.8654 24.4484 84.9964V88.1139C24.4484 89.2352 24.1391 90.0907 23.5204 90.6804C22.9114 91.2604 22.0414 91.5504 20.9104 91.5504C19.7794 91.5504 18.9046 91.2604 18.2859 90.6804C17.6673 90.0907 17.3579 89.2352 17.3579 88.1139ZM26.3008 89.7089V84.9964C26.3008 83.8654 26.6971 83.2999 27.4898 83.2999C27.9538 83.2999 28.326 83.5464 28.6063 84.0394C29.0896 83.5174 29.6165 83.2564 30.1868 83.2564C30.5251 83.2564 30.8103 83.3675 31.0423 83.5899C31.2743 83.8025 31.3903 84.078 31.3903 84.4164C31.3903 84.7837 31.1921 85.0785 30.7958 85.3009C30.7475 85.3202 30.356 85.47 29.6213 85.7504C29.1573 85.934 28.877 86.1419 28.7803 86.3739C28.703 86.5575 28.6643 86.8572 28.6643 87.2729V89.7089C28.6643 90.8495 28.2728 91.4199 27.4898 91.4199C26.6971 91.4199 26.3008 90.8495 26.3008 89.7089ZM40.0684 89.7379C40.0684 90.8785 39.6673 91.4489 38.8649 91.4489C38.0626 91.4489 37.6614 90.8785 37.6614 89.7379V82.3139C37.6614 81.1732 38.0626 80.6029 38.8649 80.6029C39.6673 80.6029 40.0684 81.1732 40.0684 82.3139V89.7379ZM42.1522 89.7089V84.9964C42.1522 83.8654 42.5486 83.2999 43.3412 83.2999C43.8052 83.2999 44.1774 83.5464 44.4577 84.0394C44.9024 83.5464 45.5887 83.2999 46.5167 83.2999C48.4211 83.2999 49.3732 84.3149 49.3732 86.3449V89.7089C49.3732 90.8495 48.9817 91.4199 48.1987 91.4199C47.4157 91.4199 47.0242 90.8495 47.0242 89.7089V87.0554C47.0242 86.4754 46.9566 86.0645 46.8212 85.8229C46.6376 85.4749 46.2847 85.3009 45.7627 85.3009C44.9314 85.3009 44.5157 85.876 44.5157 87.0264V89.7089C44.5157 90.8495 44.1242 91.4199 43.3412 91.4199C42.5486 91.4199 42.1522 90.8495 42.1522 89.7089ZM51.7 85.5619C50.7624 85.5619 50.2935 85.2235 50.2935 84.5469C50.2935 83.8992 50.7624 83.5512 51.7 83.5029C51.7 82.5555 51.7194 81.9852 51.758 81.7919C51.903 81.1055 52.2752 80.7624 52.8745 80.7624C53.4642 80.7624 53.8315 81.1055 53.9765 81.7919C54.0152 81.9852 54.0345 82.5555 54.0345 83.5029C55.1655 83.5029 55.731 83.8509 55.731 84.5469C55.731 85.2235 55.1655 85.5619 54.0345 85.5619V89.7089C54.0345 90.8495 53.6479 91.4199 52.8745 91.4199C52.0915 91.4199 51.7 90.8495 51.7 89.7089V85.5619ZM58.4541 88.0124C58.5024 88.4667 58.6909 88.8147 59.0196 89.0564C59.3483 89.298 59.7494 89.4189 60.2231 89.4189C60.6194 89.4189 61.0979 89.2932 61.6586 89.0419C62.2193 88.7809 62.5673 88.6504 62.7026 88.6504C63.3213 88.6504 63.6306 88.9549 63.6306 89.5639C63.6306 89.7959 63.5436 90.0279 63.3696 90.2599C63.0603 90.6852 62.5673 91.009 61.8906 91.2314C61.3203 91.4247 60.7258 91.5214 60.1071 91.5214C58.9471 91.5214 57.9804 91.125 57.2071 90.3324C56.4338 89.53 56.0471 88.544 56.0471 87.3744C56.0471 86.2144 56.4144 85.2235 57.1491 84.4019C57.8934 83.5802 58.8408 83.1694 59.9911 83.1694C60.5614 83.1694 61.0786 83.2757 61.5426 83.4884C62.2096 83.7977 62.7558 84.2569 63.1811 84.8659C63.6064 85.4749 63.8191 86.137 63.8191 86.8524C63.8191 87.239 63.6789 87.5339 63.3986 87.7369C63.1569 87.9205 62.8379 88.0124 62.4416 88.0124H58.4541ZM58.4251 86.4754H61.5136C61.4846 86.0694 61.3251 85.7359 61.0351 85.4749C60.7548 85.2139 60.4116 85.0834 60.0056 85.0834C59.5899 85.0834 59.2419 85.2139 58.9616 85.4749C58.6813 85.7262 58.5024 86.0597 58.4251 86.4754ZM65.1687 89.7089V84.9964C65.1687 83.8654 65.5651 83.2999 66.3577 83.2999C66.8217 83.2999 67.1939 83.5464 67.4742 84.0394C67.9576 83.5174 68.4844 83.2564 69.0547 83.2564C69.3931 83.2564 69.6782 83.3675 69.9102 83.5899C70.1422 83.8025 70.2582 84.078 70.2582 84.4164C70.2582 84.7837 70.0601 85.0785 69.6637 85.3009C69.6154 85.3202 69.2239 85.47 68.4892 85.7504C68.0252 85.934 67.7449 86.1419 67.6482 86.3739C67.5709 86.5575 67.5322 86.8572 67.5322 87.2729V89.7089C67.5322 90.8495 67.1407 91.4199 66.3577 91.4199C65.5651 91.4199 65.1687 90.8495 65.1687 89.7089ZM71.1086 89.7089V84.9964C71.1086 83.8654 71.505 83.2999 72.2976 83.2999C72.7616 83.2999 73.1338 83.5464 73.4141 84.0394C73.8588 83.5464 74.5451 83.2999 75.4731 83.2999C77.3775 83.2999 78.3296 84.3149 78.3296 86.3449V89.7089C78.3296 90.8495 77.9381 91.4199 77.1551 91.4199C76.3721 91.4199 75.9806 90.8495 75.9806 89.7089V87.0554C75.9806 86.4754 75.913 86.0645 75.7776 85.8229C75.594 85.4749 75.2411 85.3009 74.7191 85.3009C73.8878 85.3009 73.4721 85.876 73.4721 87.0264V89.7089C73.4721 90.8495 73.0806 91.4199 72.2976 91.4199C71.505 91.4199 71.1086 90.8495 71.1086 89.7089ZM82.1644 88.0124C82.2128 88.4667 82.4013 88.8147 82.7299 89.0564C83.0586 89.298 83.4598 89.4189 83.9334 89.4189C84.3298 89.4189 84.8083 89.2932 85.3689 89.0419C85.9296 88.7809 86.2776 88.6504 86.4129 88.6504C87.0316 88.6504 87.3409 88.9549 87.3409 89.5639C87.3409 89.7959 87.2539 90.0279 87.0799 90.2599C86.7706 90.6852 86.2776 91.009 85.6009 91.2314C85.0306 91.4247 84.4361 91.5214 83.8174 91.5214C82.6574 91.5214 81.6908 91.125 80.9174 90.3324C80.1441 89.53 79.7574 88.544 79.7574 87.3744C79.7574 86.2144 80.1248 85.2235 80.8594 84.4019C81.6038 83.5802 82.5511 83.1694 83.7014 83.1694C84.2718 83.1694 84.7889 83.2757 85.2529 83.4884C85.9199 83.7977 86.4661 84.2569 86.8914 84.8659C87.3168 85.4749 87.5294 86.137 87.5294 86.8524C87.5294 87.239 87.3893 87.5339 87.1089 87.7369C86.8673 87.9205 86.5483 88.0124 86.1519 88.0124H82.1644ZM82.1354 86.4754H85.2239C85.1949 86.0694 85.0354 85.7359 84.7454 85.4749C84.4651 85.2139 84.1219 85.0834 83.7159 85.0834C83.3003 85.0834 82.9523 85.2139 82.6719 85.4749C82.3916 85.7262 82.2128 86.0597 82.1354 86.4754ZM89.3576 85.5619C88.4199 85.5619 87.9511 85.2235 87.9511 84.5469C87.9511 83.8992 88.4199 83.5512 89.3576 83.5029C89.3576 82.5555 89.3769 81.9852 89.4156 81.7919C89.5606 81.1055 89.9327 80.7624 90.5321 80.7624C91.1217 80.7624 91.4891 81.1055 91.6341 81.7919C91.6727 81.9852 91.6921 82.5555 91.6921 83.5029C92.8231 83.5029 93.3886 83.8509 93.3886 84.5469C93.3886 85.2235 92.8231 85.5619 91.6921 85.5619V89.7089C91.6921 90.8495 91.3054 91.4199 90.5321 91.4199C89.7491 91.4199 89.3576 90.8495 89.3576 89.7089V85.5619ZM100.851 82.9809C99.9808 82.9809 99.4395 82.9567 99.2268 82.9084C98.5695 82.773 98.2408 82.425 98.2408 81.8644C98.2408 81.1104 98.816 80.7334 99.9663 80.7334H104.157C105.298 80.7334 105.868 81.1104 105.868 81.8644C105.868 82.425 105.539 82.773 104.882 82.9084C104.669 82.9567 104.128 82.9809 103.258 82.9809V89.7379C103.258 90.8785 102.857 91.4489 102.054 91.4489C101.252 91.4489 100.851 90.8785 100.851 89.7379V82.9809ZM107.51 88.0124C107.558 88.4667 107.747 88.8147 108.075 89.0564C108.404 89.298 108.805 89.4189 109.279 89.4189C109.675 89.4189 110.154 89.2932 110.714 89.0419C111.275 88.7809 111.623 88.6504 111.758 88.6504C112.377 88.6504 112.686 88.9549 112.686 89.5639C112.686 89.7959 112.599 90.0279 112.425 90.2599C112.116 90.6852 111.623 91.009 110.946 91.2314C110.376 91.4247 109.782 91.5214 109.163 91.5214C108.003 91.5214 107.036 91.125 106.263 90.3324C105.49 89.53 105.103 88.544 105.103 87.3744C105.103 86.2144 105.47 85.2235 106.205 84.4019C106.949 83.5802 107.897 83.1694 109.047 83.1694C109.617 83.1694 110.134 83.2757 110.598 83.4884C111.265 83.7977 111.812 84.2569 112.237 84.8659C112.662 85.4749 112.875 86.137 112.875 86.8524C112.875 87.239 112.735 87.5339 112.454 87.7369C112.213 87.9205 111.894 88.0124 111.497 88.0124H107.51ZM107.481 86.4754H110.569C110.54 86.0694 110.381 85.7359 110.091 85.4749C109.811 85.2139 109.467 85.0834 109.061 85.0834C108.646 85.0834 108.298 85.2139 108.017 85.4749C107.737 85.7262 107.558 86.0597 107.481 86.4754ZM114.225 89.7089V84.9964C114.225 83.8654 114.621 83.2999 115.414 83.2999C115.878 83.2999 116.25 83.5464 116.53 84.0394C117.013 83.5174 117.54 83.2564 118.111 83.2564C118.449 83.2564 118.734 83.3675 118.966 83.5899C119.198 83.8025 119.314 84.078 119.314 84.4164C119.314 84.7837 119.116 85.0785 118.72 85.3009C118.671 85.3202 118.28 85.47 117.545 85.7504C117.081 85.934 116.801 86.1419 116.704 86.3739C116.627 86.5575 116.588 86.8572 116.588 87.2729V89.7089C116.588 90.8495 116.197 91.4199 115.414 91.4199C114.621 91.4199 114.225 90.8495 114.225 89.7089ZM120.165 89.7089V84.9964C120.165 83.8654 120.561 83.2999 121.354 83.2999C121.818 83.2999 122.19 83.5464 122.47 84.0394C122.953 83.5174 123.48 83.2564 124.051 83.2564C124.389 83.2564 124.674 83.3675 124.906 83.5899C125.138 83.8025 125.254 84.078 125.254 84.4164C125.254 84.7837 125.056 85.0785 124.66 85.3009C124.611 85.3202 124.22 85.47 123.485 85.7504C123.021 85.934 122.741 86.1419 122.644 86.3739C122.567 86.5575 122.528 86.8572 122.528 87.2729V89.7089C122.528 90.8495 122.137 91.4199 121.354 91.4199C120.561 91.4199 120.165 90.8495 120.165 89.7089ZM128.526 89.7089C128.526 90.8495 128.139 91.4199 127.366 91.4199C126.583 91.4199 126.191 90.8495 126.191 89.7089V84.9964C126.191 83.8654 126.583 83.2999 127.366 83.2999C128.139 83.2999 128.526 83.8654 128.526 84.9964V89.7089ZM126.003 81.3134C126.003 80.9364 126.133 80.6174 126.394 80.3564C126.665 80.0954 126.989 79.9649 127.366 79.9649C127.743 79.9649 128.057 80.0954 128.308 80.3564C128.569 80.6174 128.7 80.9364 128.7 81.3134C128.7 81.6904 128.569 82.0094 128.308 82.2704C128.057 82.5314 127.743 82.6619 127.366 82.6619C126.979 82.6619 126.655 82.5362 126.394 82.2849C126.133 82.0239 126.003 81.7 126.003 81.3134ZM130.965 85.5619C130.028 85.5619 129.559 85.2235 129.559 84.5469C129.559 83.8992 130.028 83.5512 130.965 83.5029C130.965 82.5555 130.985 81.9852 131.023 81.7919C131.168 81.1055 131.54 80.7624 132.14 80.7624C132.729 80.7624 133.097 81.1055 133.242 81.7919C133.28 81.9852 133.3 82.5555 133.3 83.5029C134.431 83.5029 134.996 83.8509 134.996 84.5469C134.996 85.2235 134.431 85.5619 133.3 85.5619V89.7089C133.3 90.8495 132.913 91.4199 132.14 91.4199C131.357 91.4199 130.965 90.8495 130.965 89.7089V85.5619ZM135.312 87.3599C135.312 86.1709 135.68 85.1752 136.414 84.3729C137.159 83.5609 138.116 83.1549 139.285 83.1549C140.474 83.1549 141.431 83.556 142.156 84.3584C142.881 85.1607 143.244 86.1612 143.244 87.3599C143.244 88.5489 142.886 89.5397 142.171 90.3324C141.426 91.1444 140.465 91.5504 139.285 91.5504C138.116 91.5504 137.154 91.1395 136.4 90.3179C135.675 89.5252 135.312 88.5392 135.312 87.3599ZM137.734 87.3309C137.734 87.8625 137.859 88.312 138.111 88.6794C138.391 89.1047 138.783 89.3174 139.285 89.3174C139.798 89.3174 140.194 89.1047 140.474 88.6794C140.716 88.3217 140.837 87.8722 140.837 87.3309C140.837 86.8089 140.711 86.3642 140.46 85.9969C140.179 85.5715 139.788 85.3589 139.285 85.3589C138.773 85.3589 138.377 85.5667 138.096 85.9824C137.855 86.3497 137.734 86.7992 137.734 87.3309ZM144.703 89.7089V84.9964C144.703 83.8654 145.099 83.2999 145.892 83.2999C146.356 83.2999 146.728 83.5464 147.008 84.0394C147.492 83.5174 148.019 83.2564 148.589 83.2564C148.927 83.2564 149.212 83.3675 149.444 83.5899C149.676 83.8025 149.792 84.078 149.792 84.4164C149.792 84.7837 149.594 85.0785 149.198 85.3009C149.15 85.3202 148.758 85.47 148.023 85.7504C147.559 85.934 147.279 86.1419 147.182 86.3739C147.105 86.5575 147.066 86.8572 147.066 87.2729V89.7089C147.066 90.8495 146.675 91.4199 145.892 91.4199C145.099 91.4199 144.703 90.8495 144.703 89.7089ZM155.979 83.2999C156.752 83.2999 157.139 83.672 157.139 84.4164C157.139 84.658 157.076 84.9287 156.95 85.2284L153.369 93.7109C153.098 94.3489 152.755 94.6679 152.339 94.6679C151.991 94.6679 151.711 94.5664 151.498 94.3634C151.286 94.1604 151.179 93.8849 151.179 93.5369C151.179 93.3049 151.247 93.039 151.382 92.7394L152.339 90.6369L149.976 85.1124C149.889 84.9094 149.845 84.6919 149.845 84.4599C149.845 84.1312 149.952 83.8557 150.164 83.6334C150.387 83.411 150.662 83.2999 150.991 83.2999C151.329 83.2999 151.595 83.411 151.788 83.6334C151.904 83.7687 152.035 84.0345 152.18 84.4309L153.514 87.9689L154.949 84.2279C155.191 83.6092 155.534 83.2999 155.979 83.2999Z" fill="#263057"/>
<path d="M91.2697 46.4787C91.2697 43.4633 92.3041 41.9763 94.3637 41.9763C96.4232 41.9763 97.4207 43.4633 97.4207 46.4787V67.6331C97.4207 70.6532 96.3863 72.1401 94.3637 72.1401C92.3411 72.1401 91.2697 70.6532 91.2697 67.6331V46.4787Z" fill="#263057"/>
<path d="M101.812 67.6332V55.225C101.812 52.2465 102.842 50.7595 104.943 50.7595C106.162 50.7595 107.155 51.406 107.88 52.7036C109.067 51.406 110.859 50.7595 113.306 50.7595C118.307 50.7595 120.829 53.4286 120.829 58.7761V67.6332C120.829 70.6532 119.794 72.1402 117.735 72.1402C115.675 72.1402 114.641 70.6532 114.641 67.6332V60.6463C114.641 59.1178 114.451 58.0511 114.105 57.4138C113.611 56.4903 112.692 56.0285 111.334 56.0285C109.155 56.0285 108.046 57.5524 108.046 60.5725V67.6332C108.046 70.6532 107.017 72.1402 104.957 72.1402C102.898 72.1402 101.826 70.6532 101.826 67.6332" fill="#263057"/>
<path d="M130.069 58.5011H138.201C138.151 57.498 137.712 56.554 136.977 55.8689C136.215 55.2111 135.243 54.8462 134.236 54.8394C133.23 54.8327 132.253 55.1845 131.482 55.832C130.728 56.5401 130.231 57.4792 130.069 58.5011ZM130.143 62.551C130.172 63.0941 130.321 63.6241 130.579 64.1031C130.837 64.582 131.197 64.9981 131.634 65.3217C132.554 65.9849 133.669 66.3214 134.802 66.2776C136.121 66.2037 137.41 65.8528 138.584 65.2478C140.071 64.5967 140.99 64.2549 141.332 64.2549C142.976 64.2549 143.775 65.0538 143.775 66.6608C143.757 67.3351 143.517 67.9845 143.091 68.508C142.099 69.7551 140.733 70.6516 139.194 71.0663C137.68 71.5718 136.094 71.8291 134.498 71.8282C133.074 71.8635 131.658 71.5998 130.343 71.0541C129.027 70.5085 127.841 69.693 126.86 68.6604C125.859 67.6371 125.074 66.4239 124.549 65.0923C124.025 63.7607 123.773 62.3377 123.807 60.907C123.748 58.0112 124.799 55.2024 126.744 53.0566C128.185 51.5131 130.068 50.4533 132.135 50.0225C134.202 49.5918 136.351 49.8112 138.289 50.6507C140.031 51.4435 141.523 52.6989 142.602 54.2804C143.69 55.8067 144.277 57.6333 144.283 59.5078C144.306 59.9579 144.217 60.4068 144.024 60.814C143.83 61.2211 143.538 61.5736 143.174 61.8398C142.438 62.3552 141.551 62.6103 140.653 62.5648L130.143 62.551Z" fill="#263057"/>
<path d="M148.31 56.712C145.83 56.712 144.615 55.8346 144.615 54.0429C144.615 52.325 145.839 51.4061 148.31 51.2721C148.261 49.7696 148.311 48.2655 148.462 46.7697C148.845 44.9734 149.847 44.0544 151.403 44.0544C152.96 44.0544 153.925 44.978 154.308 46.7697C154.459 48.2655 154.51 49.7696 154.46 51.2721C157.441 51.2721 158.929 52.1957 158.926 54.0429C158.926 55.8346 157.439 56.712 154.46 56.712V67.6332C154.46 70.6533 153.426 72.1402 151.403 72.1402C149.381 72.1402 148.31 70.6533 148.31 67.6332V56.712Z" fill="#263057"/>
</svg>
