<svg width="173" height="41" viewBox="0 0 173 41" fill="none" xmlns="http://www.w3.org/2000/svg">
<path d="M36.6618 12.3892H33.6528V10.6892H36.6618V7.61218H38.4978V10.6892H41.5408V12.3892H38.4978V15.5002H36.6618V12.3892ZM48.2168 7.71418H43.0828V5.75918H50.5628V7.06818L46.3468 17.6592H44.2048L48.2168 7.71418ZM60.0655 20.0902L58.8245 21.1612C56.5352 19.1892 55.3905 16.7468 55.3905 13.8342C55.3905 11.0235 56.5408 8.58118 58.8415 6.50718L60.0485 7.57818C59.1192 8.49618 58.4335 9.45951 57.9915 10.4682C57.5608 11.4655 57.3455 12.5875 57.3455 13.8342C57.3455 15.0242 57.5892 16.1688 58.0765 17.2682C58.5638 18.3562 59.2268 19.2968 60.0655 20.0902ZM67.7228 17.6592H65.7678V14.9052H60.3278V13.4602L64.9178 5.75918H67.1618L62.8608 12.9502H65.7678V10.0092H67.7228V12.9502H69.2528V14.9052H67.7228V17.6592ZM75.2441 7.71418H70.1101V5.75918H77.5901V7.06818L73.3741 17.6592H71.2321L75.2441 7.71418ZM86.2443 17.6592H78.7643V16.0952C80.1356 14.7578 81.082 13.7888 81.6033 13.1882C83.0086 11.5788 83.7113 10.2245 83.7113 9.12518C83.7113 8.63785 83.581 8.25818 83.3203 7.98618C83.0596 7.71418 82.6856 7.57818 82.1983 7.57818C81.3256 7.57818 80.7533 8.11085 80.4813 9.17618L78.8493 8.44518C79.008 7.57251 79.4046 6.88685 80.0393 6.38818C80.6853 5.87818 81.4786 5.62318 82.4193 5.62318C83.4846 5.62318 84.312 5.92918 84.9013 6.54118C85.4906 7.14185 85.7853 7.87285 85.7853 8.73418C85.7853 9.34618 85.655 9.99785 85.3943 10.6892C85.1336 11.3578 84.8333 11.9415 84.4933 12.4402C84.142 12.9615 83.7283 13.4715 83.2523 13.9702C82.8443 14.4235 82.4703 14.8088 82.1303 15.1262C81.9603 15.2848 81.6826 15.5228 81.2973 15.8402H86.2443V17.6592ZM88.4274 12.0832L89.2094 5.75918H94.8364V7.71418H90.9264L90.5864 10.0772C90.813 10.0318 91.0397 10.0092 91.2664 10.0092C92.3544 10.0092 93.244 10.3548 93.9354 11.0462C94.6494 11.7375 95.0064 12.6555 95.0064 13.8002C95.0064 15.0355 94.6154 16.0215 93.8334 16.7582C93.0627 17.4835 92.088 17.8462 90.9094 17.8462C90.2634 17.8462 89.6004 17.6988 88.9204 17.4042C88.2857 17.1095 87.787 16.6902 87.4244 16.1462L88.5464 14.6672C88.7844 15.0298 89.13 15.3245 89.5834 15.5512C90.048 15.7778 90.507 15.8912 90.9604 15.8912C91.527 15.8912 91.9917 15.7042 92.3544 15.3302C92.7284 14.9562 92.9154 14.4745 92.9154 13.8852C92.9154 13.2618 92.683 12.7575 92.2184 12.3722C91.765 11.9755 91.153 11.7772 90.3824 11.7772C89.555 11.7772 88.9034 11.8792 88.4274 12.0832ZM97.0238 21.1612L95.7828 20.0902C96.6214 19.2968 97.2844 18.3562 97.7718 17.2682C98.2591 16.1688 98.5028 15.0242 98.5028 13.8342C98.5028 12.5875 98.2818 11.4655 97.8398 10.4682C97.4091 9.45951 96.7291 8.49618 95.7998 7.57818L97.0068 6.50718C99.3074 8.58118 100.458 11.0235 100.458 13.8342C100.458 16.7468 99.3131 19.1892 97.0238 21.1612ZM112.398 17.6592H110.443V14.9052H105.003V13.4602L109.593 5.75918H111.837L107.536 12.9502H110.443V10.0092H112.398V12.9502H113.928V14.9052H112.398V17.6592ZM118.508 17.8462C117.635 17.8462 116.865 17.6705 116.196 17.3192C115.539 16.9565 115.051 16.4635 114.734 15.8402L115.839 14.4122C116.508 15.3982 117.358 15.8912 118.389 15.8912C118.99 15.8912 119.46 15.7382 119.8 15.4322C120.14 15.1262 120.31 14.7295 120.31 14.2422C120.31 13.6982 120.112 13.2845 119.715 13.0012C119.33 12.7065 118.791 12.5592 118.1 12.5592H117.25V10.6042H118.015C118.536 10.6042 118.973 10.4512 119.324 10.1452C119.675 9.83918 119.851 9.44818 119.851 8.97218C119.851 8.51885 119.721 8.16751 119.46 7.91818C119.199 7.65751 118.825 7.52718 118.338 7.52718C117.42 7.52718 116.672 7.95218 116.094 8.80218L115.006 7.42518C115.663 6.18985 116.836 5.57218 118.525 5.57218C119.556 5.57218 120.384 5.84985 121.007 6.40518C121.63 6.94918 121.942 7.68018 121.942 8.59818C121.942 9.94685 121.336 10.8875 120.123 11.4202V11.4712C120.837 11.5958 121.392 11.9188 121.789 12.4402C122.197 12.9502 122.401 13.5735 122.401 14.3102C122.401 15.3868 122.033 16.2482 121.296 16.8942C120.559 17.5288 119.63 17.8462 118.508 17.8462ZM128.713 13.9192H124.429V12.1002H128.713V13.9192ZM138.436 10.1112C138.436 12.3098 137.858 14.1005 136.702 15.4832C135.569 16.8318 134.113 17.6195 132.333 17.8462L131.687 16.2992C134.147 15.8118 135.626 14.4292 136.124 12.1512C135.603 12.8652 134.849 13.2222 133.863 13.2222C132.866 13.2222 132.016 12.8708 131.313 12.1682C130.622 11.4768 130.276 10.5985 130.276 9.53318C130.276 8.35451 130.679 7.39685 131.483 6.66018C132.277 5.93485 133.189 5.57218 134.22 5.57218C135.524 5.57218 136.549 5.99151 137.297 6.83018C138.057 7.65751 138.436 8.75118 138.436 10.1112ZM136.362 10.0942C136.362 9.34618 136.17 8.73418 135.784 8.25818C135.399 7.77085 134.878 7.52718 134.22 7.52718C133.676 7.52718 133.229 7.71418 132.877 8.08818C132.526 8.45085 132.35 8.88718 132.35 9.39718C132.35 9.95251 132.532 10.4228 132.894 10.8082C133.268 11.1935 133.75 11.3862 134.339 11.3862C135.28 11.3862 135.954 10.9555 136.362 10.0942ZM144.755 7.71418H139.621V5.75918H147.101V7.06818L142.885 17.6592H140.743L144.755 7.71418ZM152.254 13.9192H147.97V12.1002H152.254V13.9192ZM161.416 17.6592H153.936V16.0952C155.308 14.7578 156.254 13.7888 156.775 13.1882C158.181 11.5788 158.883 10.2245 158.883 9.12518C158.883 8.63785 158.753 8.25818 158.492 7.98618C158.232 7.71418 157.858 7.57818 157.37 7.57818C156.498 7.57818 155.925 8.11085 155.653 9.17618L154.021 8.44518C154.18 7.57251 154.577 6.88685 155.211 6.38818C155.857 5.87818 156.651 5.62318 157.591 5.62318C158.657 5.62318 159.484 5.92918 160.073 6.54118C160.663 7.14185 160.957 7.87285 160.957 8.73418C160.957 9.34618 160.827 9.99785 160.566 10.6892C160.306 11.3578 160.005 11.9415 159.665 12.4402C159.314 12.9615 158.9 13.4715 158.424 13.9702C158.016 14.4235 157.642 14.8088 157.302 15.1262C157.132 15.2848 156.855 15.5228 156.469 15.8402H161.416V17.6592ZM166.931 5.62318C168.257 5.62318 169.249 6.16718 169.906 7.25518C170.575 8.35451 170.909 9.83918 170.909 11.7092C170.909 13.6358 170.575 15.1318 169.906 16.1972C169.238 17.2625 168.257 17.7952 166.965 17.7952C165.662 17.7952 164.665 17.2568 163.973 16.1802C163.282 15.1035 162.936 13.6132 162.936 11.7092C162.936 9.79385 163.276 8.30351 163.956 7.23818C164.636 6.16151 165.628 5.62318 166.931 5.62318ZM165.027 11.7092C165.027 14.5538 165.673 15.9762 166.965 15.9762C167.634 15.9762 168.11 15.6418 168.393 14.9732C168.688 14.3045 168.835 13.2165 168.835 11.7092C168.835 10.2132 168.688 9.13085 168.393 8.46218C168.099 7.79351 167.611 7.45918 166.931 7.45918C166.263 7.45918 165.775 7.80485 165.469 8.49618C165.175 9.17618 165.027 10.2472 165.027 11.7092Z" fill="#263057"/>
<path opacity="0.5" d="M37.5848 27.3592H39.0548L36.2968 30.3692L39.3208 33.6592H37.7668L34.9248 30.4392L37.5848 27.3592ZM34.6588 33.6592H33.5388V27.3592H34.6588V33.6592ZM45.5515 36.4592H44.4315V27.3592H45.5515V28.1012C45.7755 27.8398 46.0835 27.6298 46.4755 27.4712C46.8675 27.3032 47.2735 27.2192 47.6935 27.2192C48.5895 27.2192 49.2941 27.5178 49.8075 28.1152C50.3395 28.7032 50.6055 29.4685 50.6055 30.4112C50.6055 31.3725 50.3021 32.1798 49.6955 32.8332C49.0981 33.4772 48.3095 33.7992 47.3295 33.7992C46.5735 33.7992 45.9808 33.6545 45.5515 33.3652V36.4592ZM47.3715 28.2692C46.6248 28.2692 46.0181 28.5585 45.5515 29.1372V32.2592C46.0461 32.5858 46.6061 32.7492 47.2315 32.7492C47.8941 32.7492 48.4215 32.5392 48.8135 32.1192C49.2148 31.6898 49.4155 31.1345 49.4155 30.4532C49.4155 29.7905 49.2335 29.2632 48.8695 28.8712C48.5055 28.4698 48.0061 28.2692 47.3715 28.2692ZM60.3367 27.3592H61.6107L59.0907 33.6592C58.6333 34.7698 58.2367 35.5072 57.9007 35.8712C57.546 36.2632 57.14 36.4592 56.6827 36.4592C56.272 36.4592 55.8753 36.3285 55.4927 36.0672L55.8567 35.2132C56.1553 35.3532 56.3887 35.4232 56.5567 35.4232C56.818 35.4232 57.0513 35.3112 57.2567 35.0872C57.4713 34.8632 57.686 34.4992 57.9007 33.9952L58.0407 33.6592L55.0167 27.3592H56.3607L58.2087 31.3632C58.246 31.4285 58.372 31.7458 58.5867 32.3152C58.6707 32.0072 58.7687 31.6852 58.8807 31.3492L60.3367 27.3592ZM67.8016 33.6592H66.6816V27.3592H70.6716V28.4092H67.8016V33.6592ZM80.6821 33.6592H79.5621V28.4792H77.3501L77.2801 29.5432C77.2054 30.4112 77.0934 31.1345 76.9441 31.7132C76.8041 32.2825 76.6174 32.7118 76.3841 33.0012C76.1601 33.2812 75.9221 33.4772 75.6701 33.5892C75.4181 33.6918 75.1101 33.7432 74.7461 33.7432L74.6621 32.6512C74.7647 32.6605 74.8721 32.6465 74.9841 32.6092C75.0961 32.5625 75.2174 32.4692 75.3481 32.3292C75.4881 32.1892 75.6094 32.0025 75.7121 31.7692C75.8241 31.5358 75.9221 31.2092 76.0061 30.7892C76.0994 30.3598 76.1601 29.8698 76.1881 29.3192L76.3001 27.3592H80.6821V33.6592ZM87.1252 32.8752C86.5092 32.2405 86.2012 31.4518 86.2012 30.5092C86.2012 29.5572 86.5092 28.7732 87.1252 28.1572C87.7506 27.5318 88.5626 27.2192 89.5612 27.2192C90.5599 27.2192 91.3672 27.5318 91.9832 28.1572C92.6086 28.7732 92.9212 29.5572 92.9212 30.5092C92.9212 31.4612 92.6086 32.2498 91.9832 32.8752C91.3672 33.4912 90.5599 33.7992 89.5612 33.7992C88.5719 33.7992 87.7599 33.4912 87.1252 32.8752ZM88.0072 28.8992C87.5966 29.3098 87.3912 29.8465 87.3912 30.5092C87.3912 31.1718 87.5919 31.7085 87.9932 32.1192C88.4039 32.5392 88.9266 32.7492 89.5612 32.7492C90.1959 32.7492 90.7139 32.5438 91.1152 32.1332C91.5259 31.7132 91.7312 31.1718 91.7312 30.5092C91.7312 29.8652 91.5259 29.3285 91.1152 28.8992C90.7139 28.4792 90.1959 28.2692 89.5612 28.2692C88.9266 28.2692 88.4086 28.4792 88.0072 28.8992ZM103.301 31.9372L103.833 32.7492C103.292 33.4492 102.485 33.7992 101.411 33.7992C100.403 33.7992 99.5866 33.5005 98.9613 32.9032C98.3453 32.3058 98.0373 31.5078 98.0373 30.5092C98.0373 29.5852 98.3406 28.8058 98.9473 28.1712C99.5539 27.5365 100.315 27.2192 101.229 27.2192C102.331 27.2192 103.157 27.4945 103.707 28.0452L103.189 28.9272C102.704 28.4885 102.102 28.2692 101.383 28.2692C100.795 28.2692 100.287 28.4838 99.8573 28.9132C99.4373 29.3332 99.2273 29.8652 99.2273 30.5092C99.2273 31.1905 99.4419 31.7318 99.8713 32.1332C100.31 32.5438 100.851 32.7492 101.495 32.7492C102.223 32.7492 102.825 32.4785 103.301 31.9372ZM113.542 27.3592H114.816L112.296 33.6592C111.839 34.7698 111.442 35.5072 111.106 35.8712C110.751 36.2632 110.345 36.4592 109.888 36.4592C109.477 36.4592 109.081 36.3285 108.698 36.0672L109.062 35.2132C109.361 35.3532 109.594 35.4232 109.762 35.4232C110.023 35.4232 110.257 35.3112 110.462 35.0872C110.677 34.8632 110.891 34.4992 111.106 33.9952L111.246 33.6592L108.222 27.3592H109.566L111.414 31.3632C111.451 31.4285 111.577 31.7458 111.792 32.3152C111.876 32.0072 111.974 31.6852 112.086 31.3492L113.542 27.3592ZM121.522 28.4792H119.212V27.3592H124.952V28.4792H122.642V33.6592H121.522V28.4792ZM130.395 32.8752C129.779 32.2405 129.471 31.4518 129.471 30.5092C129.471 29.5572 129.779 28.7732 130.395 28.1572C131.02 27.5318 131.832 27.2192 132.831 27.2192C133.83 27.2192 134.637 27.5318 135.253 28.1572C135.878 28.7732 136.191 29.5572 136.191 30.5092C136.191 31.4612 135.878 32.2498 135.253 32.8752C134.637 33.4912 133.83 33.7992 132.831 33.7992C131.842 33.7992 131.03 33.4912 130.395 32.8752ZM131.277 28.8992C130.866 29.3098 130.661 29.8465 130.661 30.5092C130.661 31.1718 130.862 31.7085 131.263 32.1192C131.674 32.5392 132.196 32.7492 132.831 32.7492C133.466 32.7492 133.984 32.5438 134.385 32.1332C134.796 31.7132 135.001 31.1718 135.001 30.5092C135.001 29.8652 134.796 29.3285 134.385 28.8992C133.984 28.4792 133.466 28.2692 132.831 28.2692C132.196 28.2692 131.678 28.4792 131.277 28.8992ZM145.339 27.3592H146.459V33.6592H145.339V31.2092C144.854 31.5172 144.27 31.6712 143.589 31.6712C142.096 31.6712 141.349 30.8685 141.349 29.2632V27.3592H142.539V29.1372C142.539 30.1265 142.992 30.6212 143.897 30.6212C144.485 30.6212 144.966 30.4905 145.339 30.2292V27.3592ZM158.141 33.6592H157.021V30.9992H153.521V33.6592H152.401V27.3592H153.521V29.9492H157.021V27.3592H158.141V33.6592ZM164.591 32.8752C163.975 32.2405 163.667 31.4518 163.667 30.5092C163.667 29.5572 163.975 28.7732 164.591 28.1572C165.216 27.5318 166.028 27.2192 167.027 27.2192C168.025 27.2192 168.833 27.5318 169.449 28.1572C170.074 28.7732 170.387 29.5572 170.387 30.5092C170.387 31.4612 170.074 32.2498 169.449 32.8752C168.833 33.4912 168.025 33.7992 167.027 33.7992C166.037 33.7992 165.225 33.4912 164.591 32.8752ZM165.473 28.8992C165.062 29.3098 164.857 29.8465 164.857 30.5092C164.857 31.1718 165.057 31.7085 165.459 32.1192C165.869 32.5392 166.392 32.7492 167.027 32.7492C167.661 32.7492 168.179 32.5438 168.581 32.1332C168.991 31.7132 169.197 31.1718 169.197 30.5092C169.197 29.8652 168.991 29.3285 168.581 28.8992C168.179 28.4792 167.661 28.2692 167.027 28.2692C166.392 28.2692 165.874 28.4792 165.473 28.8992Z" fill="#263057"/>
<path d="M13.5808 21.959C13.3885 21.959 13.2041 22.0354 13.0682 22.1713C12.9322 22.3073 12.8558 22.4917 12.8558 22.684C12.8558 22.8763 12.9322 23.0607 13.0682 23.1966C13.2041 23.3326 13.3885 23.409 13.5808 23.409H16.4808C16.6731 23.409 16.8575 23.3326 16.9935 23.1966C17.1294 23.0607 17.2058 22.8763 17.2058 22.684C17.2058 22.4917 17.1294 22.3073 16.9935 22.1713C16.8575 22.0354 16.6731 21.959 16.4808 21.959H13.5808Z" fill="#263057"/>
<path d="M10.6808 4.55908C9.91169 4.55908 9.17407 4.86462 8.63021 5.40847C8.08636 5.95233 7.78082 6.68995 7.78082 7.45908V24.8591C7.78082 25.6282 8.08636 26.3658 8.63021 26.9097C9.17407 27.4535 9.91169 27.7591 10.6808 27.7591H19.3808C20.15 27.7591 20.8876 27.4535 21.4314 26.9097C21.9753 26.3658 22.2808 25.6282 22.2808 24.8591V7.45908C22.2808 6.68995 21.9753 5.95233 21.4314 5.40847C20.8876 4.86462 20.15 4.55908 19.3808 4.55908H10.6808ZM9.23082 7.45908C9.23082 7.07452 9.38359 6.7057 9.65552 6.43378C9.92745 6.16185 10.2963 6.00908 10.6808 6.00908H19.3808C19.7654 6.00908 20.1342 6.16185 20.4061 6.43378C20.6781 6.7057 20.8308 7.07452 20.8308 7.45908V24.8591C20.8308 25.2436 20.6781 25.6125 20.4061 25.8844C20.1342 26.1563 19.7654 26.3091 19.3808 26.3091H10.6808C10.2963 26.3091 9.92745 26.1563 9.65552 25.8844C9.38359 25.6125 9.23082 25.2436 9.23082 24.8591V7.45908Z" fill="#263057"/>
</svg>
