<svg width="30" height="30" viewBox="0 0 30 30" fill="none" xmlns="http://www.w3.org/2000/svg">
<path d="M13.5808 20.959C13.3885 20.959 13.2041 21.0354 13.0682 21.1713C12.9322 21.3073 12.8558 21.4917 12.8558 21.684C12.8558 21.8763 12.9322 22.0607 13.0682 22.1966C13.2041 22.3326 13.3885 22.409 13.5808 22.409H16.4808C16.6731 22.409 16.8575 22.3326 16.9935 22.1966C17.1294 22.0607 17.2058 21.8763 17.2058 21.684C17.2058 21.4917 17.1294 21.3073 16.9935 21.1713C16.8575 21.0354 16.6731 20.959 16.4808 20.959H13.5808Z" fill="#263057"/>
<path d="M10.6808 3.55908C9.9117 3.55908 9.17407 3.86462 8.63021 4.40847C8.08636 4.95233 7.78082 5.68995 7.78082 6.45908V23.8591C7.78082 24.6282 8.08636 25.3658 8.63021 25.9097C9.17407 26.4535 9.9117 26.7591 10.6808 26.7591H19.3808C20.15 26.7591 20.8876 26.4535 21.4314 25.9097C21.9753 25.3658 22.2808 24.6282 22.2808 23.8591V6.45908C22.2808 5.68995 21.9753 4.95233 21.4314 4.40847C20.8876 3.86462 20.15 3.55908 19.3808 3.55908H10.6808ZM9.23082 6.45908C9.23082 6.07452 9.38359 5.7057 9.65552 5.43378C9.92745 5.16185 10.2963 5.00908 10.6808 5.00908H19.3808C19.7654 5.00908 20.1342 5.16185 20.4061 5.43378C20.6781 5.7057 20.8308 6.07452 20.8308 6.45908V23.8591C20.8308 24.2436 20.6781 24.6125 20.4061 24.8844C20.1342 25.1563 19.7654 25.3091 19.3808 25.3091H10.6808C10.2963 25.3091 9.92745 25.1563 9.65552 24.8844C9.38359 24.6125 9.23082 24.2436 9.23082 23.8591V6.45908Z" fill="#263057"/>
</svg>
